<svg xmlns="http://www.w3.org/2000/svg" width="28.002" height="28" viewBox="0 0 28.002 28">
    <defs>
        <style>
            .cls-3{fill:#e6e6e6}.cls-5{fill:#3c3b5c}
        </style>
    </defs>
    <g id="Packers_Movers" transform="translate(-31.998 -209)">
        <g id="daily-needs-icn" transform="translate(32 209)">
            <path id="Rectangle_91" fill="none" d="M0 0h28v28H0z"/>
            <g id="packers-icon" transform="translate(-533.055 -186.914)">
                <path id="Rectangle_15448" fill="#ffba60" d="M540.648 193.541h10.789a.915.915 0 0 1 .915.915v12.191h-12.62v-12.191a.915.915 0 0 1 .916-.915z" transform="translate(-.565 -.053)"/>
                <circle id="Ellipse_833" cx="1.941" cy="1.941" r="1.941" class="cls-3" transform="translate(542.079 205.137)"/>
                <circle id="Ellipse_834" cx="1.941" cy="1.941" r="1.941" class="cls-3" transform="translate(553.729 205.137)"/>
                <g id="ads" transform="translate(533.053 192.911)">
                    <path id="Path_11910" fill="#efa33f" d="M541.94 205.816v-11.142a.859.859 0 0 1 .859-.859h-1.839a.86.86 0 0 0-.859.859v11.143a.859.859 0 0 0 .859.859h1.19a2.267 2.267 0 0 1 .049-.244.856.856 0 0 1-.259-.616z" transform="translate(-533.649 -192.987)"/>
                    <path id="Path_11990" d="M561.571 200.172a.435.435 0 0 0-.016-.06l-.005-.024a.4.4 0 0 0-.04-.083.435.435 0 0 0-.049-.065l-3.161-3.44a1.691 1.691 0 0 0-1.241-.549H552.6V194.6a1.691 1.691 0 0 0-1.686-1.685h-10.026a1.69 1.69 0 0 0-1.688 1.685v11.14a1.693 1.693 0 0 0 1.681 1.683H542a2.609 2.609 0 0 0 2.563 2.146 2.725 2.725 0 0 0 .383-.027 2.589 2.589 0 0 0 2.182-2.118h6.52a2.606 2.606 0 0 0 5.126 0h1.118a1.692 1.692 0 0 0 1.686-1.687v-5.542zm-1.5-.386h-7.481v-2.919h4.465a.77.77 0 0 1 .563.245zm.59.924v5.034a.77.77 0 0 1-.768.767h-1.112a2.605 2.605 0 0 0-5.126 0H552.6v-5.8zm-4.45 4.571a1.686 1.686 0 1 1-1.687 1.687 1.686 1.686 0 0 1 1.687-1.687zM540.119 194.6a.77.77 0 0 1 .768-.766h10.023a.768.768 0 0 1 .767.766v11.91h-4.554a2.6 2.6 0 0 0-5.126 0h-1.113a.77.77 0 0 1-.768-.767zm4.442 10.684a1.686 1.686 0 1 1-1.686 1.687 1.686 1.686 0 0 1 1.686-1.687z" class="cls-5" transform="translate(-533.573 -192.911)"/>
                    <path id="Path_11912" d="M534.391 200.3a.366.366 0 0 0 .366.366h3.066a.366.366 0 1 0 0-.732h-3.064a.366.366 0 0 0-.366.366z" class="cls-5" transform="translate(-533.166 -193.505)"/>
                    <path id="Path_11913" d="M533.419 204.016h4.292a.366.366 0 1 0 0-.732h-4.292a.366.366 0 1 0 0 .732z" class="cls-5" transform="translate(-533.053 -193.789)"/>
                    <path id="Path_11914" d="M537.937 197.318a.366.366 0 1 0 0-.732H536.1a.366.366 0 1 0 0 .732z" class="cls-5" transform="translate(-533.28 -193.222)"/>
                </g>
                <path id="Path_11963" d="M544.187 200.191a.376.376 0 0 0 .377.376h3.985l-.863.86a.376.376 0 0 0 .529.536l1.508-1.506a.376.376 0 0 0 0-.532l-1.508-1.506a.376.376 0 0 0-.532.533l.863.863h-3.981a.376.376 0 0 0-.377.375z" class="cls-5" transform="translate(-.942 -.457)"/>
            </g>
        </g>
    </g>
</svg>
