<svg xmlns="http://www.w3.org/2000/svg" width="28" height="28" viewBox="0 0 28 28">
    <path data-name="Rectangle 91" d="M0 0h28v28H0z" style="fill:none"/>
    <g data-name="Group 15060" transform="translate(-332.626 -390.433)">
        <path data-name="Path 14258" d="m342.737 409.416-1.774-10.645 1.419-.71 2.129 8.161h4.258l2.129-8.161 1.419.71-1.774 10.645z" style="fill:#fcd793"/>
        <path data-name="Path 14259" d="m342.382 398.061-1.419.71.174 1.046c.06.009.121.015.181.018a1.766 1.766 0 0 0 1.359-.647z" style="fill:#e7ad76"/>
        <path data-name="Path 14260" d="M350.6 399.188a1.769 1.769 0 0 0 1.359.647 1.815 1.815 0 0 0 .181-.018l.174-1.046-1.419-.71z" style="fill:#e7ad76"/>
        <path data-name="Rectangle 15" transform="translate(338.124 397.351)" style="fill:#e7e7e7" d="M0 0h17.032v1.419H0z"/>
        <path data-name="Rectangle 16" transform="translate(353.737 397.351)" style="fill:#a6b4c3" d="M0 0h1.065v1.419H0z"/>
        <path data-name="Rectangle 17" transform="translate(338.479 397.351)" style="fill:#a6b4c3" d="M0 0h1.065v1.419H0z"/>
        <circle data-name="Ellipse 20" cx="1.065" cy="1.065" r="1.065" transform="translate(340.253 396.996)" style="fill:#fcd793"/>
        <circle data-name="Ellipse 21" cx="1.065" cy="1.065" r="1.065" transform="translate(350.898 396.996)" style="fill:#fcd793"/>
        <path data-name="Path 14261" d="M346.64 406.221a2.485 2.485 0 0 1-2.484-2.483v-.71a2.484 2.484 0 0 1 2.484-2.484 2.484 2.484 0 0 1 2.484 2.484v.71a2.484 2.484 0 0 1-2.484 2.483z" style="fill:#fcd793"/>
        <path data-name="Path 14262" d="M345.576 406.222a1.329 1.329 0 0 0 .59 1.1l.474.316.474-.316a1.326 1.326 0 0 0 .59-1.1h1.065l1.774 3.194-1.065 5.677H343.8l-1.064-5.677 1.774-3.194z" style="fill:#a9a6f2"/>
        <path data-name="Rectangle 18" transform="translate(354.447 393.803)" style="fill:#778393" d="M0 0h2.839v8.516H0z"/>
        <path data-name="Rectangle 19" transform="translate(335.995 393.803)" style="fill:#778393" d="M0 0h2.839v8.516H0z"/>
        <path data-name="Path 14263" d="m343.535 413.674.266 1.419h5.677l.267-1.419z" style="fill:#647387"/>
        <path data-name="Path 14310" d="M354.078 393.433v3.547H352.9a1.408 1.408 0 0 0-1.87 0h-8.776a1.408 1.408 0 0 0-1.869 0H339.2v-3.547h-3.577v9.255h3.577v-3.548h1.18a1.507 1.507 0 0 0 .235.166l1.734 10.045 1.141 6.1v.012h6.291l1.145-6.105 1.731-10.051a1.672 1.672 0 0 0 .235-.166h1.18v3.548h3.578v-9.255zm2.157.74h.681v7.773h-2.101v-7.776h1.42zm-2.885 3.544h.726v.681h-.726a1.29 1.29 0 0 0 0-.681zm-.691.341a.7.7 0 1 1-.7-.7.7.7 0 0 1 .7.7zm-.783 1.426-1.523 8.831-1.191-2.146 1.839-7.05a1.422 1.422 0 0 0 .875.365zm-1.339-1.5V398l-.1.4h-7.579l-.11-.416a1.388 1.388 0 0 0-.038-.263h7.868a1.378 1.378 0 0 0-.041.263zm-6.428 16.736-.983-5.244 1.777-3.2v-.005l-.09-.343a2.917 2.917 0 0 0 .4.278h-.006v.015a1.687 1.687 0 0 0 .754 1.412l.671.447.009.005.679-.452a1.689 1.689 0 0 0 .754-1.412v-.015h-.006a2.9 2.9 0 0 0 .4-.278l-.088.338v.005l1.781 3.208-.986 5.241zm2.532-8.868a2.12 2.12 0 0 1-2.115-2.115v-.71a2.115 2.115 0 0 1 4.229 0v.71a2.119 2.119 0 0 1-2.114 2.115zm.267 1.165-.267.18-.269-.18a.948.948 0 0 1-.377-.5 2.762 2.762 0 0 0 1.291 0 .955.955 0 0 1-.378.5zm-.906-6.77a2.87 2.87 0 0 0-2.121 2.077l-.835-3.184h7.187l-.825 3.184a2.851 2.851 0 0 0-3.408-2.077zm-1.888 5.921-1.19 2.149-1.524-8.834a1.425 1.425 0 0 0 .874-.365zm-2.8-8.806a.7.7 0 1 1-.695.7.7.7 0 0 1 .698-.7zm-1.384 1.038h-.73v-.68h.726a1.267 1.267 0 0 0 .004.68zm-2.145-4.228h.681v7.776h-2.1v-7.776h1.42z" style="fill:#1a1818"/>
    </g>
</svg>
